<svg width="512" height="512" viewBox="0 0 1024 1024" fill="none" xmlns="http://www.w3.org/2000/svg">
<rect width="1024" height="1024" fill="white"/>
<!-- Compact version - Hurricane shape (Red) -->
<path d="M681.028 185.866C689.604 193.422 697.546 201.287 704.521 210.355C705.459 211.57 705.459 211.57 706.417 212.81C707.706 214.489 708.991 216.172 710.271 217.859C711.463 219.427 712.661 220.989 713.868 222.545C740.856 257.417 760.491 305.321 760.555 349.752C760.56 350.85 760.564 351.948 760.569 353.08C760.575 355.397 760.578 357.715 760.578 360.033C760.581 363.511 760.605 366.988 760.631 370.466C760.695 388.836 759.033 406.405 754.64 424.304C754.351 425.492 754.062 426.68 753.764 427.903C738.144 490.069 697.577 545.424 642.886 579.051C611.347 597.88 561.653 622.495 523.371 615.244C519.404 612.116 518.434 609.082 517.195 604.267C516.826 602.88 516.458 601.492 516.079 600.063C515.696 598.584 515.314 597.105 514.92 595.581C507.366 567.67 497.24 542.903 480.065 519.445C477.853 516.176 477.853 516.176 477.853 513.499C476.969 513.499 476.086 513.499 475.176 513.499C475.176 512.615 475.176 511.732 475.176 510.821C476.326 510.856 477.477 510.891 478.662 510.927C501.942 511.541 523.812 511.773 546.13 504.127C547.641 503.611 547.641 503.611 549.183 503.085C570.949 495.379 589.459 483.584 606.373 467.981C607.656 466.809 608.938 465.638 610.259 464.43C637.193 438.705 654.153 403.313 655.113 365.95C655.371 338.25 648.739 314.758 630.011 293.519C611.547 274.866 588.29 267.869 563.533 261.813C566.296 259.051 567.667 258.421 571.273 257.211C572.291 256.869 573.309 256.528 574.358 256.176C575.425 255.827 576.491 255.478 577.59 255.119C578.615 254.771 579.64 254.422 580.697 254.063C596.829 248.721 612.685 247.712 629.533 246.947C632.496 246.809 635.458 246.655 638.42 246.501C640.172 246.42 641.923 246.339 643.728 246.255C648.009 246.164 648.009 246.164 650.552 243.07C650.75 239.7 650.75 239.7 649.214 236.377C642.548 232.292 635.394 230.646 627.877 228.846C626.715 228.556 625.553 228.266 624.355 227.968C596.012 221.026 562.147 221.41 534.081 229.683C533.11 229.963 532.14 230.242 531.14 230.531C509.597 236.943 489.755 247.392 472.498 261.813C471.166 262.926 469.834 264.039 468.461 265.186C441.564 288.392 419.428 324.601 416.401 360.541C416.358 361.537 416.315 362.532 416.27 363.558C416.186 365.092 416.101 366.627 416.014 368.207C414.94 396.496 425.332 420.458 444.384 441.206C448.585 445.25 452.939 448.66 457.772 451.916C459.581 453.148 459.581 453.148 461.427 454.405C475.52 463.306 491.897 468.877 508.644 469.32C505.534 475.541 492.374 477.861 485.886 480.03C481.387 481.448 477.192 482.251 472.498 482.707C471.625 482.809 470.752 482.91 469.852 483.015C460.686 483.974 452.097 484.811 443.887 480.14C439.859 476.689 436.121 473.033 432.335 469.32C420.944 460.631 408.764 453.365 396.189 446.561C393.984 445.363 393.984 445.363 391.734 444.14C357.249 426.136 318.29 416.388 279.383 416.629C274.115 416.544 271.282 416.489 267.025 413.218C264.174 407.411 263.383 401.911 262.648 395.521C262.486 394.184 262.323 392.846 262.156 391.468C256.189 336.983 256.189 336.983 264.991 319.379C266.092 319.41 267.193 319.442 268.328 319.474C284.174 319.73 298.11 318.615 310.43 307.707C319.029 298.644 323.639 287.206 326.574 275.201C332.272 275.927 335.486 277.793 340.008 281.277C348.031 287.309 356.285 292.909 364.645 298.461C366.776 299.888 366.776 299.888 368.951 301.343C370.317 302.252 371.683 303.162 373.09 304.099C374.927 305.322 374.927 305.322 376.8 306.569C382.699 310.406 382.699 310.406 389.495 311.263C397.59 308.734 401.325 299.484 405.477 292.521C411.86 281.928 418.514 271.536 425.32 261.211C426.021 260.143 426.723 259.075 427.446 257.975C428.378 256.564 428.378 256.564 429.329 255.125C432.859 249.516 432.859 249.516 433.559 243.049C432.035 238.073 430.436 236.895 426.144 234.034C424.811 233.128 423.479 232.222 422.107 231.288C420.608 230.306 419.109 229.325 417.609 228.344C415.997 227.267 414.387 226.188 412.777 225.107C411.951 224.554 411.124 224.002 410.273 223.433C408.577 222.297 406.883 221.159 405.191 220.017C400.984 217.194 396.761 214.483 392.377 211.944C387.904 209.272 383.832 206.616 380.124 202.908C379.136 198.853 379.322 195.851 379.842 191.727C380.296 186.023 378.086 181.993 374.769 177.471C371.714 174.635 369.101 172.63 365.398 170.778C365.398 169.894 365.398 169.011 365.398 168.1C460.05 95.4507 593.822 110.281 681.028 185.866Z" fill="#DC143C"/>
<!-- Supporting element (Navy) -->
<path d="M247.588 130.617C251.131 132.364 254.304 134.557 257.545 136.808C259.527 138.13 261.511 139.449 263.496 140.767C264.575 141.489 265.654 142.212 266.766 142.956C273.632 147.532 280.552 152.02 287.499 156.471C288.897 157.393 290.295 158.315 291.735 159.264C293.052 160.105 294.369 160.945 295.725 161.811C296.899 162.572 298.072 163.334 299.28 164.118C302.394 165.795 302.394 165.795 305.325 164.479C306.152 163.907 306.979 163.336 307.832 162.747C311.917 160.023 314.368 159.209 319.251 159.341C326.01 160.829 331.609 164.979 337.298 168.78C339.536 170.272 341.797 171.723 344.064 173.169C361.324 184.441 361.324 184.441 363.515 192.414C363.225 198.317 362.258 202.187 358.704 206.926C360.063 207.366 360.063 207.366 361.45 207.815C366.576 210.137 370.603 213.347 375.02 216.799C384.157 223.813 393.554 230.305 403.198 236.6C404.652 237.551 404.652 237.551 406.136 238.522C406.995 239.079 407.854 239.636 408.74 240.209C410.916 241.733 410.916 241.733 413.593 244.411C413.253 251.472 411.389 256.024 407.569 261.898C406.594 263.399 405.62 264.9 404.646 266.401C404.137 267.175 403.628 267.949 403.103 268.747C401.49 271.27 399.982 273.837 398.485 276.431C397.469 278.141 396.453 279.851 395.436 281.561C394.756 282.783 394.756 282.783 394.061 284.03C391.445 288.317 389.775 289.832 384.983 291.481C379 291.217 375.909 289.13 371.422 285.494C369.781 284.242 368.137 282.994 366.491 281.749C365.651 281.105 364.811 280.46 363.945 279.796C359.832 276.721 355.551 273.916 351.257 271.102C342.042 265.017 332.952 258.765 323.897 252.443C320.977 255.226 318.59 258.091 316.283 261.396C315.698 262.23 315.112 263.063 314.51 263.922C314.073 264.552 313.637 265.182 313.187 265.831C307.64 265.03 303.572 263.144 298.711 260.392C297.405 259.659 296.099 258.925 294.753 258.169C293.767 257.605 292.782 257.041 291.767 256.459C289.999 259.11 288.232 261.761 286.412 264.492C287.584 265.01 287.584 265.01 288.781 265.538C292.004 267.299 294.143 269.233 296.703 271.855C297.509 272.67 298.315 273.484 299.145 274.323C302.216 277.741 302.473 279.166 302.811 283.904C302.701 285.45 302.59 286.996 302.477 288.59C295.559 293.201 287.767 292.191 279.718 291.267C267.228 287.389 258.097 279.782 251.4 268.613C249.023 263.661 248.186 259.211 248.926 253.782C250.579 251.538 250.579 251.538 252.943 249.766C262.112 248.855 270.405 252.318 278.379 256.459C281.428 252.691 281.428 252.691 281.057 248.427C277.753 245.897 274.269 243.8 270.728 241.618C267.669 239.056 267.669 239.056 266.414 235.709C266.32 231.966 266.852 230.565 268.924 227.509C272.034 223.302 272.034 223.302 271.685 218.974C268.937 216.994 266.243 215.309 263.318 213.619C252.063 206.864 241.203 199.576 230.351 192.199C229.08 191.339 229.08 191.339 227.784 190.461C225.35 188.813 222.919 187.16 220.488 185.505C219.068 184.539 217.648 183.573 216.185 182.577C212.78 180.15 212.78 180.15 210.103 177.473C209.352 171.791 210.878 168.763 213.967 164.059C215.19 162.171 215.19 162.171 216.438 160.244C217.734 158.294 217.734 158.294 219.056 156.304C220.734 153.729 222.413 151.155 224.092 148.58C224.902 147.352 225.712 146.124 226.546 144.858C229.178 140.815 231.69 136.709 234.157 132.564C237.664 127.621 242.348 129.454 247.588 130.617Z" fill="#002C73"/>
<!-- Circle accent (Gold) -->
<path d="M509.863 320.288C525.208 311.564 548.497 315.272 562.796 324.074C574.46 332.364 581.816 344.273 584.954 358.202C586.579 373.688 584.506 386.603 575.415 399.369C565.632 411.009 553.748 417.547 538.662 418.864C522.637 419.383 509.869 415.981 497.935 405.059C488.471 396.06 482.649 384.919 481.551 371.794C481.194 356.358 485.146 343.314 495.257 331.428C499.018 327.844 502.955 324.888 507.306 322.056C508.571 321.181 508.572 321.181 509.863 320.288ZM546.8 346.906C539.053 343.448 530.083 343.47 522.032 346.153C516.995 350.561 513.59 354.555 511.322 360.88C510.616 369.104 510.586 375.438 515.59 382.3C519.776 387.094 523.913 390.01 530.437 390.614C538.463 390.744 543.317 389.711 549.571 384.219C554.68 379.096 555.79 373.997 556.087 366.988C555.806 357.984 553.311 353.255 546.8 346.906Z" fill="#FFD700"/>
</svg>
