<svg width="1024" height="1024" viewBox="0 0 1024 1024" fill="none" xmlns="http://www.w3.org/2000/svg">
<rect width="1024" height="1024" fill="white"/>
<!-- Hurricane/satellite shape (Red crimson - danger/alert) -->
<path d="M681.028 185.866C689.604 193.422 697.546 201.287 704.521 210.355C705.459 211.57 705.459 211.57 706.417 212.81C707.706 214.489 708.991 216.172 710.271 217.859C711.463 219.427 712.661 220.989 713.868 222.545C740.856 257.417 760.491 305.321 760.555 349.752C760.56 350.85 760.564 351.948 760.569 353.08C760.575 355.397 760.578 357.715 760.578 360.033C760.581 363.511 760.605 366.988 760.631 370.466C760.695 388.836 759.033 406.405 754.64 424.304C754.351 425.492 754.062 426.68 753.764 427.903C738.144 490.069 697.577 545.424 642.886 579.051C611.347 597.88 561.653 622.495 523.371 615.244C519.404 612.116 518.434 609.082 517.195 604.267C516.826 602.88 516.458 601.492 516.079 600.063C515.696 598.584 515.314 597.105 514.92 595.581C507.366 567.67 497.24 542.903 480.065 519.445C477.853 516.176 477.853 516.176 477.853 513.499C476.969 513.499 476.086 513.499 475.176 513.499C475.176 512.615 475.176 511.732 475.176 510.821C476.326 510.856 477.477 510.891 478.662 510.927C501.942 511.541 523.812 511.773 546.13 504.127C547.641 503.611 547.641 503.611 549.183 503.085C570.949 495.379 589.459 483.584 606.373 467.981C607.656 466.809 608.938 465.638 610.259 464.43C637.193 438.705 654.153 403.313 655.113 365.95C655.371 338.25 648.739 314.758 630.011 293.519C611.547 274.866 588.29 267.869 563.533 261.813C566.296 259.051 567.667 258.421 571.273 257.211C572.291 256.869 573.309 256.528 574.358 256.176C575.425 255.827 576.491 255.478 577.59 255.119C578.615 254.771 579.64 254.422 580.697 254.063C596.829 248.721 612.685 247.712 629.533 246.947C632.496 246.809 635.458 246.655 638.42 246.501C640.172 246.42 641.923 246.339 643.728 246.255C648.009 246.164 648.009 246.164 650.552 243.07C650.75 239.7 650.75 239.7 649.214 236.377C642.548 232.292 635.394 230.646 627.877 228.846C626.715 228.556 625.553 228.266 624.355 227.968C596.012 221.026 562.147 221.41 534.081 229.683C533.11 229.963 532.14 230.242 531.14 230.531C509.597 236.943 489.755 247.392 472.498 261.813C471.166 262.926 469.834 264.039 468.461 265.186C441.564 288.392 419.428 324.601 416.401 360.541C416.358 361.537 416.315 362.532 416.27 363.558C416.186 365.092 416.101 366.627 416.014 368.207C414.94 396.496 425.332 420.458 444.384 441.206C448.585 445.25 452.939 448.66 457.772 451.916C459.581 453.148 459.581 453.148 461.427 454.405C475.52 463.306 491.897 468.877 508.644 469.32C505.534 475.541 492.374 477.861 485.886 480.03C481.387 481.448 477.192 482.251 472.498 482.707C471.625 482.809 470.752 482.91 469.852 483.015C460.686 483.974 452.097 484.811 443.887 480.14C439.859 476.689 436.121 473.033 432.335 469.32C420.944 460.631 408.764 453.365 396.189 446.561C393.984 445.363 393.984 445.363 391.734 444.14C357.249 426.136 318.29 416.388 279.383 416.629C274.115 416.544 271.282 416.489 267.025 413.218C264.174 407.411 263.383 401.911 262.648 395.521C262.486 394.184 262.323 392.846 262.156 391.468C256.189 336.983 256.189 336.983 264.991 319.379C266.092 319.41 267.193 319.442 268.328 319.474C284.174 319.73 298.11 318.615 310.43 307.707C319.029 298.644 323.639 287.206 326.574 275.201C332.272 275.927 335.486 277.793 340.008 281.277C348.031 287.309 356.285 292.909 364.645 298.461C366.776 299.888 366.776 299.888 368.951 301.343C370.317 302.252 371.683 303.162 373.09 304.099C374.927 305.322 374.927 305.322 376.8 306.569C382.699 310.406 382.699 310.406 389.495 311.263C397.59 308.734 401.325 299.484 405.477 292.521C411.86 281.928 418.514 271.536 425.32 261.211C426.021 260.143 426.723 259.075 427.446 257.975C428.378 256.564 428.378 256.564 429.329 255.125C432.859 249.516 432.859 249.516 433.559 243.049C432.035 238.073 430.436 236.895 426.144 234.034C424.811 233.128 423.479 232.222 422.107 231.288C420.608 230.306 419.109 229.325 417.609 228.344C415.997 227.267 414.387 226.188 412.777 225.107C411.951 224.554 411.124 224.002 410.273 223.433C408.577 222.297 406.883 221.159 405.191 220.017C400.984 217.194 396.761 214.483 392.377 211.944C387.904 209.272 383.832 206.616 380.124 202.908C379.136 198.853 379.322 195.851 379.842 191.727C380.296 186.023 378.086 181.993 374.769 177.471C371.714 174.635 369.101 172.63 365.398 170.778C365.398 169.894 365.398 169.011 365.398 168.1C460.05 95.4507 593.822 110.281 681.028 185.866Z" fill="#DC143C"/>
<!-- Supporting elements (Navy blue) -->
<path d="M247.588 130.617C251.131 132.364 254.304 134.557 257.545 136.808C259.527 138.13 261.511 139.449 263.496 140.767C264.575 141.489 265.654 142.212 266.766 142.956C273.632 147.532 280.552 152.02 287.499 156.471C288.897 157.393 290.295 158.315 291.735 159.264C293.052 160.105 294.369 160.945 295.725 161.811C296.899 162.572 298.072 163.334 299.28 164.118C302.394 165.795 302.394 165.795 305.325 164.479C306.152 163.907 306.979 163.336 307.832 162.747C311.917 160.023 314.368 159.209 319.251 159.341C326.01 160.829 331.609 164.979 337.298 168.78C339.536 170.272 341.797 171.723 344.064 173.169C361.324 184.441 361.324 184.441 363.515 192.414C363.225 198.317 362.258 202.187 358.704 206.926C360.063 207.366 360.063 207.366 361.45 207.815C366.576 210.137 370.603 213.347 375.02 216.799C384.157 223.813 393.554 230.305 403.198 236.6C404.652 237.551 404.652 237.551 406.136 238.522C406.995 239.079 407.854 239.636 408.74 240.209C410.916 241.733 410.916 241.733 413.593 244.411C413.253 251.472 411.389 256.024 407.569 261.898C406.594 263.399 405.62 264.9 404.646 266.401C404.137 267.175 403.628 267.949 403.103 268.747C401.49 271.27 399.982 273.837 398.485 276.431C397.469 278.141 396.453 279.851 395.436 281.561C394.756 282.783 394.756 282.783 394.061 284.03C391.445 288.317 389.775 289.832 384.983 291.481C379 291.217 375.909 289.13 371.422 285.494C369.781 284.242 368.137 282.994 366.491 281.749C365.651 281.105 364.811 280.46 363.945 279.796C359.832 276.721 355.551 273.916 351.257 271.102C342.042 265.017 332.952 258.765 323.897 252.443C320.977 255.226 318.59 258.091 316.283 261.396C315.698 262.23 315.112 263.063 314.51 263.922C314.073 264.552 313.637 265.182 313.187 265.831C307.64 265.03 303.572 263.144 298.711 260.392C297.405 259.659 296.099 258.925 294.753 258.169C293.767 257.605 292.782 257.041 291.767 256.459C289.999 259.11 288.232 261.761 286.412 264.492C287.584 265.01 287.584 265.01 288.781 265.538C292.004 267.299 294.143 269.233 296.703 271.855C297.509 272.67 298.315 273.484 299.145 274.323C302.216 277.741 302.473 279.166 302.811 283.904C302.701 285.45 302.59 286.996 302.477 288.59C295.559 293.201 287.767 292.191 279.718 291.267C267.228 287.389 258.097 279.782 251.4 268.613C249.023 263.661 248.186 259.211 248.926 253.782C250.579 251.538 250.579 251.538 252.943 249.766C262.112 248.855 270.405 252.318 278.379 256.459C281.428 252.691 281.428 252.691 281.057 248.427C277.753 245.897 274.269 243.8 270.728 241.618C267.669 239.056 267.669 239.056 266.414 235.709C266.32 231.966 266.852 230.565 268.924 227.509C272.034 223.302 272.034 223.302 271.685 218.974C268.937 216.994 266.243 215.309 263.318 213.619C252.063 206.864 241.203 199.576 230.351 192.199C229.08 191.339 229.08 191.339 227.784 190.461C225.35 188.813 222.919 187.16 220.488 185.505C219.068 184.539 217.648 183.573 216.185 182.577C212.78 180.15 212.78 180.15 210.103 177.473C209.352 171.791 210.878 168.763 213.967 164.059C215.19 162.171 215.19 162.171 216.438 160.244C217.734 158.294 217.734 158.294 219.056 156.304C220.734 153.729 222.413 151.155 224.092 148.58C224.902 147.352 225.712 146.124 226.546 144.858C229.178 140.815 231.69 136.709 234.157 132.564C237.664 127.621 242.348 129.454 247.588 130.617Z" fill="#002C73"/>
<path d="M273.024 439.867C310.039 437.933 356.628 447.891 386.819 470.659C390.654 476.412 390.613 481.312 389.496 488.062C386.439 494.567 381.857 499.715 377.029 504.964C373.109 509.463 371.878 512.735 372.092 518.854C374.32 526.891 378.473 530.998 385.611 535.039C390.307 537.286 393.797 537.714 398.925 537.539C400.253 537.51 401.581 537.482 402.949 537.452C405.725 537.382 408.5 537.295 411.274 537.191C424.183 536.966 432.454 540.813 441.707 549.645C448.433 557.141 447.781 564.428 447.564 574.161C447.562 576.35 447.562 576.35 447.559 578.583C447.466 587.175 446.574 594.885 444.385 603.195C432.478 603.707 423.054 599.757 412.255 595.163C410.732 594.517 410.732 594.517 409.179 593.859C381.542 581.93 357.885 564.787 335.946 544.29C334.857 543.274 333.768 542.257 332.646 541.21C305.087 514.609 283.846 479.28 273.024 442.545C273.024 441.661 273.024 440.778 273.024 439.867Z" fill="#002C73"/>
<!-- Text LANZAT (Navy blue) -->
<path d="M388.157 710.296C413.593 710.296 413.593 710.296 419.366 715.4C421.048 718.139 422.687 720.905 424.303 723.683C427.122 727.677 430.073 731.57 433.005 735.481C434.629 737.694 436.252 739.908 437.874 742.123C444.063 750.53 450.395 758.827 456.742 767.116C463.391 775.803 469.95 784.546 476.515 793.299C476.956 765.908 477.398 738.517 477.853 710.296C487.573 710.296 497.292 710.296 507.306 710.296C507.306 755.358 507.306 800.421 507.306 846.849C498.028 846.849 488.751 846.849 479.192 846.849C470.994 837.999 470.994 837.999 468.869 833.681C465.707 827.714 461.782 822.6 457.605 817.313C456.133 815.404 454.663 813.493 453.196 811.581C452.429 810.585 451.662 809.59 450.872 808.564C446.265 802.569 441.686 796.552 437.105 790.537C436.219 789.375 435.332 788.213 434.419 787.015C432.734 784.804 431.051 782.591 429.371 780.376C427.778 778.282 426.176 776.196 424.564 774.117C423.827 773.159 423.091 772.201 422.332 771.214C421.677 770.372 421.023 769.529 420.349 768.66C418.948 766.524 418.948 766.524 418.948 763.846C418.065 763.846 417.181 763.846 416.271 763.846C416.271 791.237 416.271 818.628 416.271 846.849C406.993 846.849 397.715 846.849 388.157 846.849C388.157 801.786 388.157 756.724 388.157 710.296Z" fill="#002C73"/>
<path d="M536.759 710.296C572.985 710.296 609.212 710.296 646.537 710.296C646.537 733.482 646.537 733.482 638.693 742.211C637.836 743.034 637.836 743.034 636.961 743.875C633.09 747.754 629.815 751.931 626.539 756.316C625.427 757.778 624.313 759.238 623.197 760.698C622.637 761.433 622.076 762.167 621.498 762.924C618.499 766.828 615.447 770.691 612.398 774.556C605.409 783.427 598.521 792.37 591.648 801.331C587.23 807.074 582.812 812.818 578.26 818.735C601.675 819.177 625.09 819.619 649.214 820.074C649.214 828.91 649.214 837.745 649.214 846.849C612.104 846.849 574.994 846.849 536.759 846.849C536.759 821.544 536.759 821.544 541.585 816.108C542.284 815.429 542.983 814.749 543.704 814.049C545.194 812.404 546.681 810.755 548.164 809.102C548.937 808.273 549.709 807.445 550.505 806.591C554.426 802.225 557.858 797.501 561.358 792.797C568.088 783.903 575.087 775.267 582.214 766.691C590.158 757.112 598.128 747.432 605.035 737.071C582.504 736.629 559.973 736.187 536.759 735.732C536.759 727.338 536.759 718.944 536.759 710.296Z" fill="#002C73"/>
<path d="M805.848 710.296C842.517 710.296 879.185 710.296 916.965 710.296C916.965 719.132 916.965 727.967 916.965 737.071C903.711 737.071 890.457 737.071 876.802 737.071C876.802 773.298 876.802 809.524 876.802 846.849C867.083 846.849 857.363 846.849 847.35 846.849C847.35 810.622 847.35 774.395 847.35 737.071C833.654 737.071 819.959 737.071 805.848 737.071C805.848 728.235 805.848 719.399 805.848 710.296Z" fill="#002C73"/>
<path d="M111.035 710.296C121.196 710.296 131.357 710.296 141.827 710.296C141.827 746.964 141.827 783.633 141.827 821.413C163.474 821.413 185.122 821.413 207.425 821.413C207.425 829.806 207.425 838.2 207.425 846.849C175.617 846.849 143.808 846.849 111.035 846.849C111.035 801.786 111.035 756.724 111.035 710.296Z" fill="#002C73"/>
<!-- Circular element (Gold accent) -->
<path d="M509.863 320.288C525.208 311.564 548.497 315.272 562.796 324.074C574.46 332.364 581.816 344.273 584.954 358.202C586.579 373.688 584.506 386.603 575.415 399.369C565.632 411.009 553.748 417.547 538.662 418.864C522.637 419.383 509.869 415.981 497.935 405.059C488.471 396.06 482.649 384.919 481.551 371.794C481.194 356.358 485.146 343.314 495.257 331.428C499.018 327.844 502.955 324.888 507.306 322.056C508.571 321.181 508.572 321.181 509.863 320.288ZM546.8 346.906C539.053 343.448 530.083 343.47 522.032 346.153C516.995 350.561 513.59 354.555 511.322 360.88C510.616 369.104 510.586 375.438 515.59 382.3C519.776 387.094 523.913 390.01 530.437 390.614C538.463 390.744 543.317 389.711 549.571 384.219C554.68 379.096 555.79 373.997 556.087 366.988C555.806 357.984 553.311 353.255 546.8 346.906Z" fill="#FFD700"/>
<!-- Letter A accents (Gold) -->
<path d="M758.992 710.296C769.818 737.561 780.639 764.828 791.454 792.098C792.405 794.496 793.356 796.895 794.307 799.293C797.313 806.872 800.317 814.452 803.316 822.033C804.166 824.182 805.017 826.331 805.869 828.479C807.023 831.39 808.175 834.303 809.326 837.216C810.268 839.597 810.269 839.597 811.23 842.026C812.542 845.51 812.542 845.51 812.542 846.849H780.412C778.865 842.928 777.319 839.007 775.726 834.968C775.237 833.734 774.748 832.5 774.244 831.229C773.673 829.771 773.673 829.771 773.09 828.284C772.501 826.791 772.502 826.791 771.901 825.268C771.041 822.752 771.041 822.751 771.041 820.073C752.044 820.515 733.047 820.957 713.474 821.412C710.382 829.364 707.289 837.317 704.103 845.51C702.764 846.849 702.764 846.849 699.786 847.001C697.861 846.99 697.861 846.99 695.898 846.979C693.821 846.973 693.82 846.973 691.701 846.967C690.243 846.956 688.786 846.944 687.285 846.933C685.091 846.924 685.091 846.923 682.853 846.914C679.226 846.898 675.6 846.876 671.973 846.849C672.893 841.062 674.85 835.868 677.045 830.47C677.436 829.497 677.826 828.524 678.228 827.521C679.54 824.256 680.861 820.993 682.181 817.73C683.112 815.419 684.042 813.108 684.971 810.797C687.613 804.233 690.261 797.672 692.912 791.111C694.863 786.278 696.813 781.443 698.762 776.608C699.108 775.75 699.454 774.891 699.811 774.006C700.519 772.249 701.228 770.491 701.936 768.734C709.79 749.252 717.655 729.773 725.523 710.296H758.992ZM736.549 757.84C735.858 759.591 735.167 761.342 734.476 763.093C733.465 765.642 732.455 768.191 731.449 770.742C731.118 771.582 730.796 772.397 730.475 773.212C727.668 780.311 725.269 787.366 722.845 794.638H760.331C760.331 790.501 759.368 787.55 757.95 783.703C757.596 782.768 757.254 781.86 756.911 780.952C756.192 779.025 755.471 777.098 754.75 775.171C753.605 772.138 752.461 769.104 751.332 766.065C750.595 764.08 749.855 762.097 749.111 760.114C748.571 758.679 748.571 758.679 748.042 757.272C746.338 752.677 745.122 748.637 741.588 745.104C739.906 749.348 738.226 753.593 736.549 757.84Z" fill="#FFD700"/>
<path d="M313.187 710.296C321.056 729.908 328.909 749.525 336.615 769.201C341.868 782.607 347.168 795.993 352.513 809.363C353.166 810.999 353.819 812.636 354.492 814.321C358.077 823.276 361.737 832.189 365.537 841.055C366.737 844.171 366.737 844.171 366.737 846.849H334.606C333.06 842.928 331.514 839.007 329.921 834.968C329.432 833.734 328.943 832.5 328.438 831.229C327.868 829.771 327.867 829.771 327.285 828.284C326.696 826.791 326.696 826.791 326.096 825.268C325.235 822.752 325.235 822.751 325.235 820.073H267.669C266.344 824.049 265.019 828.026 263.653 832.122C261.886 836.982 260.119 841.842 258.298 846.849H226.168C230.68 831.807 230.68 831.807 233.196 825.873C233.778 824.488 234.359 823.102 234.958 821.675C235.592 820.18 236.225 818.685 236.878 817.146C238.308 813.734 239.737 810.32 241.161 806.905C241.55 805.974 241.938 805.043 242.339 804.083C245.83 795.697 249.239 787.279 252.635 778.854C253.19 777.477 253.745 776.099 254.317 774.68C256.555 769.125 258.791 763.569 261.022 758.011C267.455 741.988 274.043 726.074 281.057 710.296H313.187ZM295.783 745.104C293.895 749.888 292.011 754.674 290.138 759.464C289.371 761.427 288.603 763.39 287.834 765.353C286.698 768.229 285.562 771.105 284.438 773.985C284.072 774.923 283.718 775.832 283.363 776.742C280.967 782.769 279.463 788.138 278.38 794.638H314.525C314.525 789.283 314.525 789.282 313.237 785.195C312.628 783.584 312.037 782.019 311.445 780.455C310.794 778.727 310.141 776.999 309.487 775.272C308.449 772.57 307.412 769.867 306.395 767.156C305.729 765.381 305.060 763.608 304.387 761.836C304.056 760.969 303.734 760.128 303.413 759.286C301.377 753.942 299.469 749.5 295.783 745.104Z" fill="#FFD700"/>
<!-- Small detail accent (Gold) -->
<path d="M516.677 320.719C514.987 321.879 513.283 323.018 511.573 324.149C510.152 325.104 510.152 325.104 508.702 326.079C505.967 327.412 505.967 327.412 501.951 326.074C503.641 324.913 505.345 323.774 507.055 322.643C508.003 322.006 508.95 321.369 509.926 320.713C512.661 319.38 512.661 319.38 516.677 320.719Z" fill="#FFD700"/>
</svg>
